<mxfile host="app.diagrams.net" modified="2024-03-21T09:06:18.798Z" agent="Mozilla/5.0 (Macintosh; Intel Mac OS X 10_15_7) AppleWebKit/537.36 (KHTML, like Gecko) Chrome/122.0.0.0 Safari/537.36" etag="Kx8cUSbqWxG5CEGw6DES" version="24.0.7" type="github">
  <diagram name="Page-1" id="uukP3XcTdVGsUKC_aiOE">
    <mxGraphModel dx="2074" dy="1121" grid="1" gridSize="10" guides="1" tooltips="1" connect="1" arrows="1" fold="1" page="1" pageScale="1" pageWidth="827" pageHeight="1169" math="0" shadow="0">
      <root>
        <mxCell id="0" />
        <mxCell id="1" parent="0" />
        <mxCell id="8WbEt5foAgeZKm9OIb6H-21" style="edgeStyle=orthogonalEdgeStyle;rounded=0;orthogonalLoop=1;jettySize=auto;html=1;fontSize=14;" edge="1" parent="1" source="8WbEt5foAgeZKm9OIb6H-4" target="8WbEt5foAgeZKm9OIb6H-14">
          <mxGeometry relative="1" as="geometry">
            <mxPoint x="1120" y="472.5" as="targetPoint" />
            <Array as="points">
              <mxPoint x="1090" y="473" />
              <mxPoint x="1090" y="473" />
            </Array>
          </mxGeometry>
        </mxCell>
        <mxCell id="8WbEt5foAgeZKm9OIb6H-4" value="" style="rounded=0;whiteSpace=wrap;html=1;fontSize=14;" vertex="1" parent="1">
          <mxGeometry x="320" y="375" width="300" height="195" as="geometry" />
        </mxCell>
        <mxCell id="8WbEt5foAgeZKm9OIb6H-5" value="云开平台服务" style="text;html=1;align=center;verticalAlign=middle;whiteSpace=wrap;rounded=0;fontSize=14;" vertex="1" parent="1">
          <mxGeometry x="382.5" y="340" width="185" height="20" as="geometry" />
        </mxCell>
        <mxCell id="8WbEt5foAgeZKm9OIb6H-12" style="edgeStyle=orthogonalEdgeStyle;rounded=0;orthogonalLoop=1;jettySize=auto;html=1;entryX=0;entryY=0.5;entryDx=0;entryDy=0;fontSize=14;" edge="1" parent="1" source="8WbEt5foAgeZKm9OIb6H-8" target="8WbEt5foAgeZKm9OIb6H-4">
          <mxGeometry relative="1" as="geometry" />
        </mxCell>
        <mxCell id="8WbEt5foAgeZKm9OIb6H-8" value="Actor" style="shape=umlActor;verticalLabelPosition=bottom;verticalAlign=top;html=1;outlineConnect=0;fontSize=14;" vertex="1" parent="1">
          <mxGeometry x="70" y="290" width="30" height="60" as="geometry" />
        </mxCell>
        <mxCell id="8WbEt5foAgeZKm9OIb6H-11" value="云开平台开发者" style="text;html=1;align=center;verticalAlign=middle;whiteSpace=wrap;rounded=0;fontSize=14;" vertex="1" parent="1">
          <mxGeometry x="17.5" y="240" width="135" height="20" as="geometry" />
        </mxCell>
        <mxCell id="8WbEt5foAgeZKm9OIb6H-23" style="edgeStyle=orthogonalEdgeStyle;rounded=0;orthogonalLoop=1;jettySize=auto;html=1;fontSize=14;" edge="1" parent="1" source="8WbEt5foAgeZKm9OIb6H-14">
          <mxGeometry relative="1" as="geometry">
            <mxPoint x="1620" y="475" as="targetPoint" />
          </mxGeometry>
        </mxCell>
        <mxCell id="8WbEt5foAgeZKm9OIb6H-24" value="git仓源代码拉取" style="edgeLabel;html=1;align=center;verticalAlign=middle;resizable=0;points=[];fontSize=14;" vertex="1" connectable="0" parent="8WbEt5foAgeZKm9OIb6H-23">
          <mxGeometry x="-0.1911" y="-1" relative="1" as="geometry">
            <mxPoint as="offset" />
          </mxGeometry>
        </mxCell>
        <mxCell id="8WbEt5foAgeZKm9OIb6H-29" style="edgeStyle=orthogonalEdgeStyle;rounded=0;orthogonalLoop=1;jettySize=auto;html=1;fontSize=14;" edge="1" parent="1" source="8WbEt5foAgeZKm9OIb6H-14">
          <mxGeometry relative="1" as="geometry">
            <mxPoint x="1280" y="690" as="targetPoint" />
          </mxGeometry>
        </mxCell>
        <mxCell id="8WbEt5foAgeZKm9OIb6H-30" value="源代码结构存储" style="edgeLabel;html=1;align=center;verticalAlign=middle;resizable=0;points=[];fontSize=14;" vertex="1" connectable="0" parent="8WbEt5foAgeZKm9OIb6H-29">
          <mxGeometry x="0.0207" y="1" relative="1" as="geometry">
            <mxPoint as="offset" />
          </mxGeometry>
        </mxCell>
        <mxCell id="8WbEt5foAgeZKm9OIb6H-14" value="" style="rounded=0;whiteSpace=wrap;html=1;fontSize=14;" vertex="1" parent="1">
          <mxGeometry x="1130" y="370" width="300" height="210" as="geometry" />
        </mxCell>
        <mxCell id="8WbEt5foAgeZKm9OIb6H-15" value="云开依赖分析服务" style="text;html=1;align=center;verticalAlign=middle;whiteSpace=wrap;rounded=0;fontSize=14;" vertex="1" parent="1">
          <mxGeometry x="1220" y="330" width="120" height="30" as="geometry" />
        </mxCell>
        <mxCell id="8WbEt5foAgeZKm9OIb6H-17" value="" style="verticalLabelPosition=bottom;html=1;verticalAlign=top;align=center;strokeColor=none;fillColor=#00BEF2;shape=mxgraph.azure.git_repository;fontSize=14;" vertex="1" parent="1">
          <mxGeometry x="1630" y="440" width="130" height="70" as="geometry" />
        </mxCell>
        <mxCell id="8WbEt5foAgeZKm9OIb6H-18" value="宝尊gitlab仓库" style="text;html=1;align=center;verticalAlign=middle;whiteSpace=wrap;rounded=0;fontSize=14;" vertex="1" parent="1">
          <mxGeometry x="1635" y="390" width="110" height="30" as="geometry" />
        </mxCell>
        <mxCell id="8WbEt5foAgeZKm9OIb6H-19" value="task结构{&lt;div style=&quot;font-size: 14px;&quot;&gt;......&lt;br style=&quot;font-size: 14px;&quot;&gt;&lt;div style=&quot;font-size: 14px;&quot;&gt;git project url&lt;/div&gt;&lt;div style=&quot;font-size: 14px;&quot;&gt;git branch&amp;nbsp;&lt;/div&gt;&lt;div style=&quot;font-size: 14px;&quot;&gt;......&lt;/div&gt;&lt;div style=&quot;font-size: 14px;&quot;&gt;&lt;span style=&quot;background-color: initial; font-size: 14px;&quot;&gt;}&lt;/span&gt;&lt;br style=&quot;font-size: 14px;&quot;&gt;&lt;/div&gt;&lt;/div&gt;" style="shape=note;whiteSpace=wrap;html=1;backgroundOutline=1;darkOpacity=0.05;fontSize=14;" vertex="1" parent="1">
          <mxGeometry x="30" y="650" width="150" height="160" as="geometry" />
        </mxCell>
        <mxCell id="8WbEt5foAgeZKm9OIb6H-22" value="HTTP调用&lt;br style=&quot;font-size: 14px;&quot;&gt;获取API结构&lt;br style=&quot;font-size: 14px;&quot;&gt;获取Process结构" style="text;html=1;align=center;verticalAlign=middle;whiteSpace=wrap;rounded=0;fontSize=14;" vertex="1" parent="1">
          <mxGeometry x="800" y="430" width="130" height="20" as="geometry" />
        </mxCell>
        <mxCell id="8WbEt5foAgeZKm9OIb6H-67" value="" style="edgeStyle=orthogonalEdgeStyle;rounded=0;orthogonalLoop=1;jettySize=auto;html=1;" edge="1" parent="1" source="8WbEt5foAgeZKm9OIb6H-26" target="8WbEt5foAgeZKm9OIb6H-66">
          <mxGeometry relative="1" as="geometry" />
        </mxCell>
        <mxCell id="8WbEt5foAgeZKm9OIb6H-68" style="edgeStyle=orthogonalEdgeStyle;rounded=0;orthogonalLoop=1;jettySize=auto;html=1;" edge="1" parent="1" source="8WbEt5foAgeZKm9OIb6H-26">
          <mxGeometry relative="1" as="geometry">
            <mxPoint x="390" y="770" as="targetPoint" />
          </mxGeometry>
        </mxCell>
        <mxCell id="8WbEt5foAgeZKm9OIb6H-69" value="下载Excel" style="edgeLabel;html=1;align=center;verticalAlign=middle;resizable=0;points=[];fontSize=14;" vertex="1" connectable="0" parent="8WbEt5foAgeZKm9OIb6H-68">
          <mxGeometry x="-0.0092" y="-1" relative="1" as="geometry">
            <mxPoint as="offset" />
          </mxGeometry>
        </mxCell>
        <mxCell id="8WbEt5foAgeZKm9OIb6H-26" value="API导出" style="rounded=0;whiteSpace=wrap;html=1;fontSize=14;" vertex="1" parent="1">
          <mxGeometry x="330" y="440" width="120" height="60" as="geometry" />
        </mxCell>
        <mxCell id="8WbEt5foAgeZKm9OIb6H-27" value="源代码结构分析API" style="rounded=0;whiteSpace=wrap;html=1;fontSize=14;" vertex="1" parent="1">
          <mxGeometry x="1220" y="440" width="120" height="60" as="geometry" />
        </mxCell>
        <mxCell id="8WbEt5foAgeZKm9OIb6H-28" value="MongoDB" style="shape=cylinder3;whiteSpace=wrap;html=1;boundedLbl=1;backgroundOutline=1;size=15;fontSize=14;" vertex="1" parent="1">
          <mxGeometry x="1241" y="700" width="80" height="120" as="geometry" />
        </mxCell>
        <mxCell id="8WbEt5foAgeZKm9OIb6H-52" style="edgeStyle=orthogonalEdgeStyle;rounded=0;orthogonalLoop=1;jettySize=auto;html=1;" edge="1" parent="1" source="8WbEt5foAgeZKm9OIb6H-31">
          <mxGeometry relative="1" as="geometry">
            <mxPoint x="665" y="844" as="targetPoint" />
          </mxGeometry>
        </mxCell>
        <mxCell id="8WbEt5foAgeZKm9OIb6H-54" value="上传" style="edgeLabel;html=1;align=center;verticalAlign=middle;resizable=0;points=[];" vertex="1" connectable="0" parent="8WbEt5foAgeZKm9OIb6H-52">
          <mxGeometry x="-0.1132" y="4" relative="1" as="geometry">
            <mxPoint y="-10" as="offset" />
          </mxGeometry>
        </mxCell>
        <mxCell id="8WbEt5foAgeZKm9OIb6H-58" style="edgeStyle=orthogonalEdgeStyle;rounded=0;orthogonalLoop=1;jettySize=auto;html=1;" edge="1" parent="1" source="8WbEt5foAgeZKm9OIb6H-31">
          <mxGeometry relative="1" as="geometry">
            <mxPoint x="385" y="950" as="targetPoint" />
          </mxGeometry>
        </mxCell>
        <mxCell id="8WbEt5foAgeZKm9OIb6H-31" value="" style="shape=image;html=1;verticalAlign=top;verticalLabelPosition=bottom;labelBackgroundColor=#ffffff;imageAspect=0;aspect=fixed;image=https://cdn3.iconfinder.com/data/icons/document-icons-2/30/647714-excel-128.png;fontSize=14;" vertex="1" parent="1">
          <mxGeometry x="321" y="780" width="128" height="128" as="geometry" />
        </mxCell>
        <mxCell id="8WbEt5foAgeZKm9OIb6H-34" value="应用基本信息&lt;div style=&quot;font-size: 14px;&quot;&gt;模块&lt;/div&gt;&lt;div style=&quot;font-size: 14px;&quot;&gt;微服务信息&lt;/div&gt;&lt;div style=&quot;font-size: 14px;&quot;&gt;API信息&lt;/div&gt;&lt;div style=&quot;font-size: 14px;&quot;&gt;API请求体&lt;br style=&quot;font-size: 14px;&quot;&gt;API响应体&lt;br style=&quot;font-size: 14px;&quot;&gt;API依赖信息&lt;/div&gt;" style="shape=note;whiteSpace=wrap;html=1;backgroundOutline=1;darkOpacity=0.05;fontSize=14;" vertex="1" parent="1">
          <mxGeometry x="290" y="960" width="190" height="200" as="geometry" />
        </mxCell>
        <mxCell id="8WbEt5foAgeZKm9OIb6H-36" value="1" style="ellipse;whiteSpace=wrap;html=1;aspect=fixed;strokeWidth=2;fontFamily=Tahoma;spacingBottom=4;spacingRight=2;strokeColor=#d3d3d3;fontSize=14;" vertex="1" parent="1">
          <mxGeometry x="220" y="346.5" width="39" height="39" as="geometry" />
        </mxCell>
        <mxCell id="8WbEt5foAgeZKm9OIb6H-40" value="2" style="ellipse;whiteSpace=wrap;html=1;aspect=fixed;strokeWidth=2;fontFamily=Tahoma;spacingBottom=4;spacingRight=2;strokeColor=#d3d3d3;fontSize=14;" vertex="1" parent="1">
          <mxGeometry x="440.5" y="391" width="39" height="39" as="geometry" />
        </mxCell>
        <mxCell id="8WbEt5foAgeZKm9OIb6H-41" value="3" style="ellipse;whiteSpace=wrap;html=1;aspect=fixed;strokeWidth=2;fontFamily=Tahoma;spacingBottom=4;spacingRight=2;strokeColor=#d3d3d3;fontSize=14;" vertex="1" parent="1">
          <mxGeometry x="840" y="370" width="39" height="39" as="geometry" />
        </mxCell>
        <mxCell id="8WbEt5foAgeZKm9OIb6H-42" value="4" style="ellipse;whiteSpace=wrap;html=1;aspect=fixed;strokeWidth=2;fontFamily=Tahoma;spacingBottom=4;spacingRight=2;strokeColor=#d3d3d3;fontSize=14;" vertex="1" parent="1">
          <mxGeometry x="1260.5" y="385.5" width="39" height="39" as="geometry" />
        </mxCell>
        <mxCell id="8WbEt5foAgeZKm9OIb6H-43" value="源代码分析处理" style="rounded=0;whiteSpace=wrap;html=1;fontSize=14;" vertex="1" parent="1">
          <mxGeometry x="1220" y="510" width="120" height="50" as="geometry" />
        </mxCell>
        <mxCell id="8WbEt5foAgeZKm9OIb6H-44" value="6" style="ellipse;whiteSpace=wrap;html=1;aspect=fixed;strokeWidth=2;fontFamily=Tahoma;spacingBottom=4;spacingRight=2;strokeColor=#d3d3d3;fontSize=14;" vertex="1" parent="1">
          <mxGeometry x="1350" y="515.5" width="39" height="39" as="geometry" />
        </mxCell>
        <mxCell id="8WbEt5foAgeZKm9OIb6H-45" value="5" style="ellipse;whiteSpace=wrap;html=1;aspect=fixed;strokeWidth=2;fontFamily=Tahoma;spacingBottom=4;spacingRight=2;strokeColor=#d3d3d3;fontSize=14;" vertex="1" parent="1">
          <mxGeometry x="1500" y="401" width="39" height="39" as="geometry" />
        </mxCell>
        <mxCell id="8WbEt5foAgeZKm9OIb6H-46" value="8" style="ellipse;whiteSpace=wrap;html=1;aspect=fixed;strokeWidth=2;fontFamily=Tahoma;spacingBottom=4;spacingRight=2;strokeColor=#d3d3d3;fontSize=14;" vertex="1" parent="1">
          <mxGeometry x="310" y="620" width="39" height="39" as="geometry" />
        </mxCell>
        <mxCell id="8WbEt5foAgeZKm9OIb6H-48" value="" style="rounded=0;whiteSpace=wrap;html=1;" vertex="1" parent="1">
          <mxGeometry x="674.5" y="780" width="220" height="110" as="geometry" />
        </mxCell>
        <mxCell id="8WbEt5foAgeZKm9OIb6H-50" value="文件服务" style="text;html=1;align=center;verticalAlign=middle;whiteSpace=wrap;rounded=0;" vertex="1" parent="1">
          <mxGeometry x="736.5" y="730" width="60" height="30" as="geometry" />
        </mxCell>
        <mxCell id="8WbEt5foAgeZKm9OIb6H-75" style="edgeStyle=orthogonalEdgeStyle;rounded=0;orthogonalLoop=1;jettySize=auto;html=1;" edge="1" parent="1" source="8WbEt5foAgeZKm9OIb6H-51">
          <mxGeometry relative="1" as="geometry">
            <mxPoint x="775.5" y="970" as="targetPoint" />
          </mxGeometry>
        </mxCell>
        <mxCell id="8WbEt5foAgeZKm9OIb6H-51" value="" style="sketch=0;outlineConnect=0;fontColor=#232F3E;gradientColor=none;fillColor=#7AA116;strokeColor=none;dashed=0;verticalLabelPosition=bottom;verticalAlign=top;align=center;html=1;fontSize=12;fontStyle=0;aspect=fixed;pointerEvents=1;shape=mxgraph.aws4.file_system;" vertex="1" parent="1">
          <mxGeometry x="736.5" y="798.5" width="78" height="73" as="geometry" />
        </mxCell>
        <mxCell id="8WbEt5foAgeZKm9OIb6H-53" value="9" style="ellipse;whiteSpace=wrap;html=1;aspect=fixed;strokeWidth=2;fontFamily=Tahoma;spacingBottom=4;spacingRight=2;strokeColor=#d3d3d3;fontSize=14;" vertex="1" parent="1">
          <mxGeometry x="525" y="770" width="39" height="39" as="geometry" />
        </mxCell>
        <mxCell id="8WbEt5foAgeZKm9OIb6H-55" value="7" style="ellipse;whiteSpace=wrap;html=1;aspect=fixed;strokeWidth=2;fontFamily=Tahoma;spacingBottom=4;spacingRight=2;strokeColor=#d3d3d3;fontSize=14;" vertex="1" parent="1">
          <mxGeometry x="1360" y="620" width="39" height="39" as="geometry" />
        </mxCell>
        <mxCell id="8WbEt5foAgeZKm9OIb6H-56" value="MySQL" style="shape=cylinder3;whiteSpace=wrap;html=1;boundedLbl=1;backgroundOutline=1;size=15;fontSize=14;" vertex="1" parent="1">
          <mxGeometry x="60" y="861.5" width="80" height="120" as="geometry" />
        </mxCell>
        <mxCell id="8WbEt5foAgeZKm9OIb6H-57" style="edgeStyle=orthogonalEdgeStyle;rounded=0;orthogonalLoop=1;jettySize=auto;html=1;entryX=0.563;entryY=-0.054;entryDx=0;entryDy=0;entryPerimeter=0;" edge="1" parent="1" source="8WbEt5foAgeZKm9OIb6H-19" target="8WbEt5foAgeZKm9OIb6H-56">
          <mxGeometry relative="1" as="geometry" />
        </mxCell>
        <mxCell id="8WbEt5foAgeZKm9OIb6H-59" value="" style="endArrow=classic;html=1;rounded=0;" edge="1" parent="1">
          <mxGeometry width="50" height="50" relative="1" as="geometry">
            <mxPoint x="1120" y="520" as="sourcePoint" />
            <mxPoint x="630" y="520" as="targetPoint" />
          </mxGeometry>
        </mxCell>
        <mxCell id="8WbEt5foAgeZKm9OIb6H-61" value="返回对应的API、Process结构" style="edgeLabel;html=1;align=center;verticalAlign=middle;resizable=0;points=[];fontSize=14;" vertex="1" connectable="0" parent="8WbEt5foAgeZKm9OIb6H-59">
          <mxGeometry x="0.0292" y="3" relative="1" as="geometry">
            <mxPoint as="offset" />
          </mxGeometry>
        </mxCell>
        <mxCell id="8WbEt5foAgeZKm9OIb6H-64" style="edgeStyle=orthogonalEdgeStyle;rounded=0;orthogonalLoop=1;jettySize=auto;html=1;entryX=1.01;entryY=0.838;entryDx=0;entryDy=0;entryPerimeter=0;" edge="1" parent="1" source="8WbEt5foAgeZKm9OIb6H-17" target="8WbEt5foAgeZKm9OIb6H-14">
          <mxGeometry relative="1" as="geometry">
            <Array as="points">
              <mxPoint x="1695" y="546" />
            </Array>
          </mxGeometry>
        </mxCell>
        <mxCell id="8WbEt5foAgeZKm9OIb6H-65" value="获取对应的微服务源代码文件" style="edgeLabel;html=1;align=center;verticalAlign=middle;resizable=0;points=[];fontSize=14;" vertex="1" connectable="0" parent="8WbEt5foAgeZKm9OIb6H-64">
          <mxGeometry x="0.2282" y="-1" relative="1" as="geometry">
            <mxPoint as="offset" />
          </mxGeometry>
        </mxCell>
        <mxCell id="8WbEt5foAgeZKm9OIb6H-66" value="创建导出Task" style="rounded=0;whiteSpace=wrap;html=1;fontSize=14;" vertex="1" parent="1">
          <mxGeometry x="479.5" y="440" width="120" height="60" as="geometry" />
        </mxCell>
        <mxCell id="8WbEt5foAgeZKm9OIb6H-71" style="edgeStyle=orthogonalEdgeStyle;rounded=0;orthogonalLoop=1;jettySize=auto;html=1;entryX=1;entryY=0.5;entryDx=0;entryDy=0;entryPerimeter=0;exitX=0.5;exitY=1;exitDx=0;exitDy=0;" edge="1" parent="1" source="8WbEt5foAgeZKm9OIb6H-66">
          <mxGeometry relative="1" as="geometry">
            <mxPoint x="479.5" y="534.5" as="sourcePoint" />
            <mxPoint x="190" y="744.5" as="targetPoint" />
            <Array as="points">
              <mxPoint x="540" y="535" />
              <mxPoint x="270" y="535" />
              <mxPoint x="270" y="745" />
            </Array>
          </mxGeometry>
        </mxCell>
        <mxCell id="8WbEt5foAgeZKm9OIb6H-72" value="&lt;font style=&quot;font-size: 14px;&quot;&gt;下载微服务Excel结构&lt;/font&gt;" style="rounded=0;whiteSpace=wrap;html=1;" vertex="1" parent="1">
          <mxGeometry x="702.75" y="981.5" width="145.5" height="58.5" as="geometry" />
        </mxCell>
        <mxCell id="8WbEt5foAgeZKm9OIb6H-74" value="10" style="ellipse;whiteSpace=wrap;html=1;aspect=fixed;strokeWidth=2;fontFamily=Tahoma;spacingBottom=4;spacingRight=2;strokeColor=#d3d3d3;fontSize=14;" vertex="1" parent="1">
          <mxGeometry x="788" y="908" width="39" height="39" as="geometry" />
        </mxCell>
      </root>
    </mxGraphModel>
  </diagram>
</mxfile>
